<svg width="136" height="33" viewBox="0 0 136 33" fill="none" xmlns="http://www.w3.org/2000/svg">
<path d="M47.7765 17.273C48.5929 17.447 49.2487 17.8552 49.7439 18.4976C50.2391 19.1266 50.4867 19.8493 50.4867 20.6657C50.4867 21.8434 50.0718 22.7802 49.242 23.4762C48.4256 24.1587 47.2813 24.5 45.8092 24.5H39.2447V10.4073H45.5884C47.0204 10.4073 48.1379 10.7352 48.9409 11.391C49.7573 12.0468 50.1655 12.9368 50.1655 14.061C50.1655 14.8908 49.9446 15.58 49.503 16.1287C49.0747 16.6774 48.4992 17.0589 47.7765 17.273ZM42.6775 16.1086H44.9259C45.488 16.1086 45.9162 15.9882 46.2107 15.7473C46.5185 15.493 46.6724 15.125 46.6724 14.6432C46.6724 14.1614 46.5185 13.7933 46.2107 13.539C45.9162 13.2848 45.488 13.1576 44.9259 13.1576H42.6775V16.1086ZM45.2069 21.7296C45.7824 21.7296 46.2241 21.6025 46.5319 21.3482C46.8531 21.0806 47.0137 20.6991 47.0137 20.2039C47.0137 19.7088 46.8464 19.3206 46.5118 19.0396C46.1906 18.7585 45.7423 18.618 45.1668 18.618H42.6775V21.7296H45.2069ZM57.7775 24.6606C56.6801 24.6606 55.6897 24.4264 54.8064 23.958C53.9365 23.4896 53.2472 22.8204 52.7387 21.9505C52.2435 21.0806 51.9959 20.0634 51.9959 18.8991C51.9959 17.7481 52.2502 16.7377 52.7587 15.8677C53.2673 14.9844 53.9632 14.3086 54.8465 13.8402C55.7298 13.3717 56.7202 13.1375 57.8176 13.1375C58.9151 13.1375 59.9055 13.3717 60.7888 13.8402C61.6721 14.3086 62.368 14.9844 62.8766 15.8677C63.3851 16.7377 63.6394 17.7481 63.6394 18.8991C63.6394 20.05 63.3784 21.0672 62.8565 21.9505C62.3479 22.8204 61.6453 23.4896 60.7486 23.958C59.8653 24.4264 58.8749 24.6606 57.7775 24.6606ZM57.7775 21.6895C58.4333 21.6895 58.9887 21.4486 59.4437 20.9668C59.9121 20.485 60.1464 19.7958 60.1464 18.8991C60.1464 18.0024 59.9188 17.3131 59.4638 16.8313C59.0221 16.3495 58.4734 16.1086 57.8176 16.1086C57.1485 16.1086 56.5931 16.3495 56.1514 16.8313C55.7098 17.2998 55.4889 17.989 55.4889 18.8991C55.4889 19.7958 55.7031 20.485 56.1313 20.9668C56.573 21.4486 57.1217 21.6895 57.7775 21.6895ZM70.7604 24.6606C69.663 24.6606 68.6726 24.4264 67.7893 23.958C66.9194 23.4896 66.2301 22.8204 65.7216 21.9505C65.2264 21.0806 64.9788 20.0634 64.9788 18.8991C64.9788 17.7481 65.2331 16.7377 65.7416 15.8677C66.2502 14.9844 66.9461 14.3086 67.8294 13.8402C68.7127 13.3717 69.7031 13.1375 70.8005 13.1375C71.898 13.1375 72.8883 13.3717 73.7716 13.8402C74.6549 14.3086 75.3509 14.9844 75.8594 15.8677C76.368 16.7377 76.6223 17.7481 76.6223 18.8991C76.6223 20.05 76.3613 21.0672 75.8394 21.9505C75.3308 22.8204 74.6282 23.4896 73.7315 23.958C72.8482 24.4264 71.8578 24.6606 70.7604 24.6606ZM70.7604 21.6895C71.4162 21.6895 71.9716 21.4486 72.4266 20.9668C72.895 20.485 73.1292 19.7958 73.1292 18.8991C73.1292 18.0024 72.9017 17.3131 72.4467 16.8313C72.005 16.3495 71.4563 16.1086 70.8005 16.1086C70.1314 16.1086 69.576 16.3495 69.1343 16.8313C68.6927 17.2998 68.4718 17.989 68.4718 18.8991C68.4718 19.7958 68.686 20.485 69.1142 20.9668C69.5559 21.4486 70.1046 21.6895 70.7604 21.6895ZM85.4898 24.5L82.077 19.8024V24.5H78.6442V9.64449H82.077V17.8552L85.4697 13.2981H89.7056L85.0482 18.9191L89.7457 24.5H85.4898ZM94.6875 9.64449V24.5H91.2546V9.64449H94.6875ZM102.475 24.6606C101.378 24.6606 100.387 24.4264 99.5039 23.958C98.634 23.4896 97.9447 22.8204 97.4362 21.9505C96.941 21.0806 96.6934 20.0634 96.6934 18.8991C96.6934 17.7481 96.9477 16.7377 97.4562 15.8677C97.9648 14.9844 98.6607 14.3086 99.544 13.8402C100.427 13.3717 101.418 13.1375 102.515 13.1375C103.613 13.1375 104.603 13.3717 105.486 13.8402C106.37 14.3086 107.065 14.9844 107.574 15.8677C108.083 16.7377 108.337 17.7481 108.337 18.8991C108.337 20.05 108.076 21.0672 107.554 21.9505C107.045 22.8204 106.343 23.4896 105.446 23.958C104.563 24.4264 103.572 24.6606 102.475 24.6606ZM102.475 21.6895C103.131 21.6895 103.686 21.4486 104.141 20.9668C104.61 20.485 104.844 19.7958 104.844 18.8991C104.844 18.0024 104.616 17.3131 104.161 16.8313C103.72 16.3495 103.171 16.1086 102.515 16.1086C101.846 16.1086 101.291 16.3495 100.849 16.8313C100.407 17.2998 100.186 17.989 100.186 18.8991C100.186 19.7958 100.401 20.485 100.829 20.9668C101.27 21.4486 101.819 21.6895 102.475 21.6895ZM115.458 24.6606C114.36 24.6606 113.37 24.4264 112.487 23.958C111.617 23.4896 110.928 22.8204 110.419 21.9505C109.924 21.0806 109.676 20.0634 109.676 18.8991C109.676 17.7481 109.931 16.7377 110.439 15.8677C110.948 14.9844 111.644 14.3086 112.527 13.8402C113.41 13.3717 114.401 13.1375 115.498 13.1375C116.595 13.1375 117.586 13.3717 118.469 13.8402C119.352 14.3086 120.048 14.9844 120.557 15.8677C121.066 16.7377 121.32 17.7481 121.32 18.8991C121.32 20.05 121.059 21.0672 120.537 21.9505C120.028 22.8204 119.326 23.4896 118.429 23.958C117.546 24.4264 116.555 24.6606 115.458 24.6606ZM115.458 21.6895C116.114 21.6895 116.669 21.4486 117.124 20.9668C117.593 20.485 117.827 19.7958 117.827 18.8991C117.827 18.0024 117.599 17.3131 117.144 16.8313C116.703 16.3495 116.154 16.1086 115.498 16.1086C114.829 16.1086 114.273 16.3495 113.832 16.8313C113.39 17.2998 113.169 17.989 113.169 18.8991C113.169 19.7958 113.383 20.485 113.812 20.9668C114.253 21.4486 114.802 21.6895 115.458 21.6895ZM126.775 14.8841C127.109 14.3621 127.571 13.9405 128.16 13.6193C128.749 13.2981 129.438 13.1375 130.227 13.1375C131.151 13.1375 131.987 13.3717 132.737 13.8402C133.486 14.3086 134.075 14.9778 134.503 15.8477C134.945 16.7176 135.166 17.728 135.166 18.879C135.166 20.03 134.945 21.0471 134.503 21.9304C134.075 22.8003 133.486 23.4762 132.737 23.958C131.987 24.4264 131.151 24.6606 130.227 24.6606C129.451 24.6606 128.762 24.5 128.16 24.1788C127.571 23.8576 127.109 23.4427 126.775 22.9341V29.84H123.342V13.2981H126.775V14.8841ZM131.673 18.879C131.673 18.0225 131.432 17.3533 130.95 16.8715C130.482 16.3763 129.9 16.1287 129.204 16.1287C128.521 16.1287 127.939 16.3763 127.457 16.8715C126.989 17.3667 126.754 18.0425 126.754 18.8991C126.754 19.7556 126.989 20.4315 127.457 20.9266C127.939 21.4218 128.521 21.6694 129.204 21.6694C129.886 21.6694 130.468 21.4218 130.95 20.9266C131.432 20.4181 131.673 19.7355 131.673 18.879Z" fill="#202B5B"/>
<path d="M32 9.875V30.625H22.4644C19.8441 30.625 18.466 32.4018 18.3256 32.5H13.6744C13.532 32.4004 12.1736 30.625 9.53563 30.625H0V8.9375C0 8.41973 0.419733 8 0.9375 8C1.45527 8 1.875 8.41973 1.875 8.9375V28.75H9.54375C12.4739 28.75 14.1049 30.4032 14.5112 30.625H17.4888C17.8949 30.4032 19.5264 28.75 22.4562 28.75H30.125V9.875C30.6327 10.4165 31.4923 10.4165 32 9.875Z" fill="#202B5B"/>
<path d="M13.1831 27.6231C12.0444 27.1306 10.8125 26.875 9.54375 26.875H3.75V4.25H5.625V23.125H8.4375C10.9925 23.125 13.0825 25.1256 13.1831 27.6231Z" fill="#FF4998"/>
<path d="M22.4563 6.125C20.4704 6.125 18.5577 6.64525 16.8716 7.64006C16.9152 8.06594 16.9375 8.499 16.9375 8.9375V28.7107C17.0631 28.6196 17.2066 28.5187 17.3702 28.4113C20.265 26.4807 22.2595 26.875 28.25 26.875V6.125H22.4563Z" fill="#FF4998"/>
<path d="M15.0625 27.8125C15.0625 24.1939 12.0906 21.25 8.4375 21.25H7.5V0.5C12.1869 0.5 15.0625 4.28506 15.0625 8.9375V27.8125Z" fill="#FF4998"/>
</svg>
