<svg width="21" height="20" viewBox="0 0 21 20" fill="none" xmlns="http://www.w3.org/2000/svg">
<path fill-rule="evenodd" clip-rule="evenodd" d="M9.05 17.855L10.5 19.175L11.95 17.865L11.9895 17.8291C17.1174 13.1692 20.5 10.0953 20.5 6.32495C20.5 3.24495 18.08 0.824951 15 0.824951C13.9028 0.824951 12.8334 1.14703 11.9198 1.70594C11.3845 2.03338 10.9027 2.44209 10.5 2.91495C10.0973 2.44209 9.61551 2.03338 9.08025 1.70594C8.16658 1.14703 7.09721 0.824951 6 0.824951C2.92 0.824951 0.5 3.24495 0.5 6.32495C0.5 10.1019 3.89442 13.1799 9.03733 17.8435L9.05 17.855ZM10.6071 16.3829C13.2217 14.0068 15.2293 12.1781 16.6077 10.4917C17.9635 8.83301 18.5 7.55801 18.5 6.32495C18.5 4.34952 16.9754 2.82495 15 2.82495C13.8656 2.82495 12.7455 3.36282 12.0227 4.21163L10.5 5.99976L8.9773 4.21163C8.25448 3.36282 7.13443 2.82495 6 2.82495C4.02457 2.82495 2.5 4.34952 2.5 6.32495C2.5 7.55798 3.03649 8.8329 4.39185 10.49C5.77019 12.1751 7.77824 14.0019 10.3935 16.3734L10.3964 16.376L10.5051 16.475L10.6049 16.3848C10.6057 16.3842 10.6064 16.3835 10.6071 16.3829Z" fill="#ffffff"/>
</svg>
